<?xml version="1.0" encoding="UTF-8" standalone="no"?>
<!-- Generator: Adobe Illustrator 16.0.0, SVG Export Plug-In . SVG Version: 6.00 Build 0)  -->

<svg
   xmlns:osb="http://www.openswatchbook.org/uri/2009/osb"
   xmlns:dc="http://purl.org/dc/elements/1.1/"
   xmlns:cc="http://creativecommons.org/ns#"
   xmlns:rdf="http://www.w3.org/1999/02/22-rdf-syntax-ns#"
   xmlns:svg="http://www.w3.org/2000/svg"
   xmlns="http://www.w3.org/2000/svg"
   xmlns:sodipodi="http://sodipodi.sourceforge.net/DTD/sodipodi-0.dtd"
   xmlns:inkscape="http://www.inkscape.org/namespaces/inkscape"
   version="1.1"
   id="Capa_1"
   x="0px"
   y="0px"
   width="512px"
   height="512px"
   viewBox="0 0 779.652 779.652"
   style="enable-background:new 0 0 779.652 779.652;"
   xml:space="preserve"
   inkscape:version="0.91 r13725"
   sodipodi:docname="play.svg"><metadata
     id="metadata44"><rdf:RDF><cc:Work
         rdf:about=""><dc:format>image/svg+xml</dc:format><dc:type
           rdf:resource="http://purl.org/dc/dcmitype/StillImage" /></cc:Work></rdf:RDF></metadata><defs
     id="defs42"><linearGradient
       id="linearGradient5646"
       osb:paint="solid"><stop
         style="stop-color:#000000;stop-opacity:1;"
         offset="0"
         id="stop5648" /></linearGradient></defs><sodipodi:namedview
     pagecolor="#ffffff"
     bordercolor="#666666"
     borderopacity="1"
     objecttolerance="10"
     gridtolerance="10"
     guidetolerance="10"
     inkscape:pageopacity="0"
     inkscape:pageshadow="2"
     inkscape:window-width="1366"
     inkscape:window-height="705"
     id="namedview40"
     showgrid="false"
     inkscape:zoom="1"
     inkscape:cx="188.58969"
     inkscape:cy="256"
     inkscape:window-x="-8"
     inkscape:window-y="-8"
     inkscape:window-maximized="1"
     inkscape:current-layer="g6" /><g
     id="g3"><g
       id="_x37__12_"><g
         id="g6"><path
           d="M679.503,349.728L151.09,9.181C119.742-7.703,83.832-5.951,83.832,54.688v670.58c0,55.408,38.525,64.17,67.258,45.506     l528.442-340.547C701.255,407.975,701.255,371.953,679.503,349.728z"
           id="path8"
           fill="#91DC5A"
           style="stroke:#000000;stroke-width:6.09103082;stroke-miterlimit:4;stroke-dasharray:none;stroke-opacity:0.19607843" /><path
           style="opacity:1;fill:#00cc00;fill-opacity:1;stroke:#000000;stroke-width:4;stroke-linecap:round;stroke-linejoin:round;stroke-miterlimit:4;stroke-dasharray:none;stroke-dashoffset:0;stroke-opacity:0.19607843"
           d="M 74.518149,508.92168 C 65.439153,505.9808 59.820242,497.83708 57.805952,484.7 57.058969,479.82823 56.81733,408.68467 57.011171,250.7 57.272128,38.014035 57.399457,23.37914 59.030436,18.611615 61.57784,11.165285 64.730449,6.997534 69.797761,4.377203 75.66712,1.3421303 84.952949,1.7546828 92.925715,5.404736 99.926367,8.6097405 444.5114,230.66664 446.94154,233.53901 c 11.36339,13.43129 9.62822,38.18005 -3.36408,47.98204 -7.22432,5.45035 -342.73129,221.24343 -348.78777,224.33509 -7.396199,3.77555 -14.679417,4.87695 -20.271541,3.06554 z"
           id="path4153"
           inkscape:connector-curvature="0"
           transform="scale(1.5227577,1.5227577)" /></g></g></g><g
     id="g10" /><g
     id="g12" /><g
     id="g14" /><g
     id="g16" /><g
     id="g18" /><g
     id="g20" /><g
     id="g22" /><g
     id="g24" /><g
     id="g26" /><g
     id="g28" /><g
     id="g30" /><g
     id="g32" /><g
     id="g34" /><g
     id="g36" /><g
     id="g38" /></svg>