<?xml version="1.0" encoding="UTF-8" standalone="no"?>
<!-- Created with Inkscape (http://www.inkscape.org/) -->

<svg
   xmlns:osb="http://www.openswatchbook.org/uri/2009/osb"
   xmlns:dc="http://purl.org/dc/elements/1.1/"
   xmlns:cc="http://creativecommons.org/ns#"
   xmlns:rdf="http://www.w3.org/1999/02/22-rdf-syntax-ns#"
   xmlns:svg="http://www.w3.org/2000/svg"
   xmlns="http://www.w3.org/2000/svg"
   xmlns:sodipodi="http://sodipodi.sourceforge.net/DTD/sodipodi-0.dtd"
   xmlns:inkscape="http://www.inkscape.org/namespaces/inkscape"
   width="100"
   height="100"
   viewBox="0 0 100 100"
   id="svg2"
   version="1.1"
   inkscape:version="0.91 r13725"
   sodipodi:docname="estrela_voto_60%.svg">
  <defs
     id="defs4">
    <linearGradient
       id="linearGradient5596"
       osb:paint="solid">
      <stop
         style="stop-color:#000000;stop-opacity:1;"
         offset="0"
         id="stop5598" />
    </linearGradient>
    <linearGradient
       id="linearGradient5590"
       osb:paint="solid">
      <stop
         style="stop-color:#501616;stop-opacity:1;"
         offset="0"
         id="stop5592" />
    </linearGradient>
  </defs>
  <sodipodi:namedview
     id="base"
     pagecolor="#ffffff"
     bordercolor="#666666"
     borderopacity="1.0"
     inkscape:pageopacity="0.0"
     inkscape:pageshadow="2"
     inkscape:zoom="4.0493632"
     inkscape:cx="29.407343"
     inkscape:cy="51.549651"
     inkscape:document-units="px"
     inkscape:current-layer="layer1"
     showgrid="false"
     units="px"
     guidetolerance="10000"
     objecttolerance="10000"
     inkscape:showpageshadow="false"
     showborder="true"
     borderlayer="false"
     showguides="true"
     inkscape:window-width="1366"
     inkscape:window-height="705"
     inkscape:window-x="-8"
     inkscape:window-y="-8"
     inkscape:window-maximized="1" />
  <metadata
     id="metadata7">
    <rdf:RDF>
      <cc:Work
         rdf:about="">
        <dc:format>image/svg+xml</dc:format>
        <dc:type
           rdf:resource="http://purl.org/dc/dcmitype/StillImage" />
        <dc:title />
      </cc:Work>
    </rdf:RDF>
  </metadata>
  <g
     inkscape:label="Camada 1"
     inkscape:groupmode="layer"
     id="layer1"
     transform="translate(0,-952.36216)">
    <path
       sodipodi:type="star"
       style="fill:#000000;fill-opacity:0;stroke:#000000;stroke-width:4.05074535;stroke-linecap:round;stroke-linejoin:miter;stroke-miterlimit:4;stroke-dasharray:0.40507453, 0.40507452999999999;stroke-dashoffset:0;stroke-opacity:0.78431374"
       id="path4142"
       sodipodi:sides="5"
       sodipodi:cx="50.26902"
       sodipodi:cy="1006.4561"
       sodipodi:r1="50.919083"
       sodipodi:r2="25.459541"
       sodipodi:arg1="0.94145225"
       sodipodi:arg2="1.5697708"
       inkscape:flatsided="false"
       inkscape:rounded="0.005"
       inkscape:randomized="0"
       d="m 80.240737,1047.6198 c -0.136677,0.1 -29.77654,-15.7043 -29.945607,-15.7042 -0.169068,2e-4 -29.776453,15.8648 -29.913333,15.7656 -0.136881,-0.099 5.734251,-33.1721 5.681841,-33.3328 -0.05241,-0.1608 -24.2897346,-23.41663 -24.2376546,-23.57747 0.05208,-0.16085 33.3205016,-4.79714 33.4571786,-4.89666 0.136677,-0.0995 14.76457,-30.33704 14.933638,-30.33721 0.169068,-1.7e-4 14.858951,30.20728 14.995832,30.30652 0.136881,0.0992 33.414741,4.66728 33.467151,4.82802 0.05241,0.16074 -24.137165,23.4663 -24.189245,23.6271 -0.05208,0.1609 5.886876,33.2216 5.750199,33.3211 z"
       inkscape:transform-center-x="0.015955977"
       inkscape:transform-center-y="-4.7798288"
       transform="matrix(0.98880294,0,0,0.98614403,0.56267678,14.728912)" />
    <path
       style="fill:#404040;fill-opacity:1;stroke:#404040;stroke-width:0.01896944;stroke-linecap:round;stroke-linejoin:round;stroke-miterlimit:4;stroke-dasharray:none;stroke-dashoffset:0;stroke-opacity:1"
       d="m 19.849337,97.439813 c -0.208664,-0.0854 -0.550114,-0.3455 -0.758778,-0.57799 -0.710228,-0.791327 -0.837218,0.08639 3.993512,-27.601996 L 24.110031,63.3793 23.307546,62.602023 C 22.866178,62.17452 18.877153,58.337315 14.443046,54.074899 10.008939,49.812482 5.0365742,44.996972 3.3933463,43.373764 l -2.98768708,-2.951287 0,-0.96813 c 0,-1.240522 0.55352605,-1.852197 1.94644718,-2.150926 0.534675,-0.114666 7.8486946,-1.19273 16.2533766,-2.395698 8.404684,-1.202966 15.343649,-2.248681 15.419925,-2.32381 0.07627,-0.07513 3.134421,-6.237361 6.795878,-13.693851 3.661459,-7.45649 6.921654,-14.0535527 7.244878,-14.6601396 0.835444,-1.5678609 1.903297,-2.0221091 3.189736,-1.3568655 0.476169,0.2462365 1.206978,1.576629 4.767271,8.6785201 l 4.20489,8.387701 0.158601,33.575912 c 0.08723,18.466752 0.135805,33.708341 0.107942,33.870202 -0.03801,0.220816 -1.282015,-0.358103 -4.982716,-2.318798 -2.71263,-1.437199 -5.049154,-2.615319 -5.192276,-2.618047 -0.143121,-0.0027 -1.124789,0.455166 -2.181486,1.017542 -6.796428,3.617072 -21.373511,11.316573 -23.873767,12.609938 -2.900043,1.500172 -3.57352,1.708206 -4.415022,1.363786 z"
       id="path4140"
       inkscape:connector-curvature="0"
       transform="translate(0,952.36216)" />
  </g>
</svg>
